Simulation
nRows=48
nColumns=15
endheader
time  TH_x TH_y TH_z SC_y  SC_z  SC_x  AC_y  AC_z  AC_x  GH_y  GH_z  GH_yy  EL_x  PS_y
8.6175  0.000000  0.000000  0.000000  -37.36797390326548  1.6215537613108362  -5.323725627168755  45.47156919815745  2.5919951205143645  3.4112644260412406  21.05691606306485  6.179408245493713  -6.7854162599808  20.472843891356046  120.000000
8.67495  0.000000  0.000000  0.000000  -36.352469406017995  1.1023498310611868  -5.798778478719986  46.85588346971645  1.337671057761827  4.782875340207389  6.736639647992054  8.574744418510027  5.353643597093449  20.43881407751824  120.000000
8.7324  0.000000  0.000000  0.000000  -35.540594787040575  0.4140192266385703  -6.341942152891247  48.629508729361426  -0.10321715379045877  6.571506122371483  -1.9274079343140533  11.786241704597773  12.134718605171058  20.574115083721704  120.000000
8.78985  0.000000  0.000000  0.000000  -34.94835160767923  -0.4382740097321074  -6.956091900838323  50.75479784668603  -1.7314083032699086  8.759330529099213  -7.223423268455382  15.651503095664276  15.907865909605448  20.84117928077662  120.000000
8.8473  0.000000  0.000000  0.000000  -34.59076588975221  -1.4120669765634355  -7.629763204034975  53.118846043797696  -3.502216171913787  11.30979669892752  -10.451272097861562  19.93200976691867  17.998919772573505  21.166297547830556  120.000000
8.90475  0.000000  0.000000  0.000000  -34.48729770168673  -2.432213642723435  -8.358233584850014  55.58508695320382  -5.272330509419185  14.164098437296381  -12.16298374707355  24.270393585490396  18.976664393432653  21.477362250881143  120.000000
8.9622  0.000000  0.000000  0.000000  -34.63430974126433  -3.378582072360614  -9.09684575612712  58.03132960933894  -6.807584708175178  17.18229461284238  -12.553244699978235  28.23844624677591  19.030581306076055  21.732564088332825  120.000000
9.01965  0.000000  0.000000  0.000000  -34.989968672832326  -4.082146528579654  -9.712426987176213  60.37962288802157  -7.868918078369576  20.135155201422723  -11.690834630286599  31.4522247282006  18.161600651548763  21.920523580252016  120.000000
9.0771  0.000000  0.000000  0.000000  -35.54761058438746  -4.399018948994295  -10.031917842434147  62.60789917254614  -8.277527022535198  22.75262384495316  -9.55915536215013  33.704607950655905  16.199057336626318  22.033353524599505  120.000000
9.13455  0.000000  0.000000  0.000000  -36.415061163600754  -4.198804759898305  -9.882025186187086  64.7310024405121  -7.997740604656475  24.842506357058873  -6.083995671607823  35.00930969707871  12.84356894046602  22.081025092533018  120.000000
9.192  0.000000  0.000000  0.000000  -37.66583171789288  -3.3342225800516143  -9.071149720779584  66.78382512570987  -7.182491138479748  26.367156134100647  -1.262662961679469  35.56804464793785  7.803680775225425  22.077213621803377  120.000000
9.24945  0.000000  0.000000  0.000000  -39.14448691631368  -1.674289269042655  -7.345138052649039  68.75633848784712  -6.1736812478975205  27.425039200808847  4.645153812042246  35.70693312868239  0.9959865514999802  21.994931110834294  120.000000
9.3069  0.000000  0.000000  0.000000  -40.58537816771215  0.8040702269958163  -4.437657343976437  70.55339221338018  -5.310699102781099  28.12070851028301  11.189916378207789  35.72780055304768  -7.416086086446967  21.78155477481342  120.000000
9.36435  0.000000  0.000000  0.000000  -41.866543447354424  3.98541768311223  -0.1972095197286657  72.0810543125692  -4.718251602616626  28.481107588583253  18.140065033032222  35.87523622127491  -17.254931723660295  21.413112582034913  120.000000
9.421800000000001  0.000000  0.000000  0.000000  -43.156028482084956  7.683085822121274  5.400886086737397  73.23072579960356  -4.423634122138783  28.529967589484375  25.447214628859847  36.42934075262117  -28.222532742731797  20.920657049978164  120.000000
9.47925  0.000000  0.000000  0.000000  -44.76975980973936  11.662504772736474  12.252434114091496  73.79448136700394  -4.46742203441502  28.29449929045014  32.91416089377921  37.5728190724934  -39.702869370355494  20.34429654118993  120.000000
9.5367  0.000000  0.000000  0.000000  -46.872052317259474  15.582297367665909  20.05749839646994  73.57177700797362  -4.862286297738765  27.814805356933473  40.24264623097888  39.29919598782664  -50.978146969895924  19.720655655089374  120.000000
9.59415  0.000000  0.000000  0.000000  -49.3301347793704  19.05122755016546  28.339261498413812  72.54871377881916  -5.555646527704603  27.143243866338597  47.02796034395885  41.48596351346408  -61.26998492654215  19.11660271202396  120.000000
9.6516  0.000000  0.000000  0.000000  -51.82454837274334  21.79930500930641  36.490292284309405  70.91236001060115  -6.4488424256190315  26.32781842001751  52.75700484829496  43.89788772789968  -69.81852320129744  18.57967077058814  120.000000
9.70905  0.000000  0.000000  0.000000  -54.059393135572996  23.678875239957765  43.8957146164761  68.97385677353034  -7.428868920236304  25.41292127974339  57.067178794896925  46.20341548874964  -76.17391576379316  18.122331111656955  120.000000
9.7665  0.000000  0.000000  0.000000  -55.81771582813679  24.693662117709273  50.08312983787269  67.07772080534295  -8.404682620085774  24.424413142801797  59.90531205404491  48.127991983314736  -80.32177455712038  17.773521940947138  120.000000
9.82395  0.000000  0.000000  0.000000  -56.95868412386171  24.989918900800895  54.78240975306121  65.48439464809249  -9.29964681330858  23.377389478651445  61.47683657376802  49.55259677620055  -82.5839804975044  17.551846464339796  120.000000
9.8814  0.000000  0.000000  0.000000  -57.44533278792826  24.787290554185397  57.93272170993161  64.29802251162543  -10.052282986697776  22.30050789569948  62.166218166133376  50.479958458157085  -83.46768168015797  17.451984722791224  120.000000
9.93885  0.000000  0.000000  0.000000  -57.44576008941747  24.435311017219217  59.717838526446684  63.49718439465124  -10.700785607989994  21.259826580580906  62.409073410591304  50.96802795910675  -83.50656734025559  17.445520612929176  120.000000
9.9963  0.000000  0.000000  0.000000  -57.19314010288252  24.244989646806623  60.4036724104864  63.00457238363741  -11.352710180367191  20.30558553081436  62.54912464538071  51.07808134461834  -83.10928121312642  17.49199811608935  120.000000
10.05375  0.000000  0.000000  0.000000  -56.68471673468362  24.214561601843943  60.01856612308363  62.77770539192338  -12.022573039272874  19.405545014464856  62.729458545369745  50.90505925129809  -82.45307461858243  17.55671552817174  120.000000
10.1112  0.000000  0.000000  0.000000  -55.75702335377841  24.14421087789431  58.36140330865761  62.81448039808129  -12.646912167893289  18.500086111792193  62.89316607004844  50.585785738654806  -81.46781180447138  17.621024494406097  120.000000
10.16865  0.000000  0.000000  0.000000  -54.358136334544646  23.84792193661405  55.26301184880593  63.056419306321395  -13.181399469887353  17.589729117491025  62.93033155359593  50.21521172237122  -79.94251337121702  17.668982388361144  120.000000
10.2261  0.000000  0.000000  0.000000  -52.547870571620074  23.132349937274316  50.66250035181463  63.31486464977254  -13.487434656751708  16.686951251222954  62.825293490543196  49.80611861783919  -77.671791844014  17.685342356012413  120.000000
10.28355  0.000000  0.000000  0.000000  -50.44275939038833  21.82750394022361  44.615471451984384  63.334500794342986  -13.298825631109006  15.761257076241103  62.62540711122314  49.32317981618759  -74.52522417531621  17.66483042355352  120.000000
10.341000000000001  0.000000  0.000000  0.000000  -48.21699641969655  19.879250657356927  37.326806155795865  62.901010890712904  -12.421922863197354  14.780859553521067  62.330783848204135  48.730502070543416  -70.47189013958322  17.606768708569117  120.000000
10.39845  0.000000  0.000000  0.000000  -46.051505773405026  17.39209724940879  29.137612476979506  61.85441110089727  -10.83837845150823  13.753474924012181  61.91033716514895  48.018954111086366  -65.61658843091692  17.520508144089565  120.000000
10.4559  0.000000  0.000000  0.000000  -44.06678220638884  14.608862670530396  20.484801600216198  60.10597499470228  -8.647979624132407  12.700992376536327  61.385037661845125  47.2381638555162  -60.23421648571939  17.462614586699434  120.000000
10.51335  0.000000  0.000000  0.000000  -42.28287337273805  11.84799266430401  11.831236185676046  57.658922756355615  -6.001261572775859  11.667498637476221  60.896017456921605  46.4714257114057  -54.76533436755433  17.520767086397424  120.000000
10.5708  0.000000  0.000000  0.000000  -40.6438018542981  9.374049174676895  3.5937408443219394  54.563458186821116  -3.0448408507218296  10.747704912850706  60.696276187652025  45.69029307365715  -49.69592303683868  17.782287751923402  120.000000
10.62825  0.000000  0.000000  0.000000  -39.125711662167696  7.266373729189873  -3.8889634465930634  50.90653962048198  0.0647556336567235  10.097075446218945  61.02717767264269  44.71115634679086  -45.41940157393449  18.293411137455706  120.000000
10.6857  0.000000  0.000000  0.000000  -37.750583223781994  5.557526522524498  -10.364043020862058  46.91537127337462  3.1827317440031897  9.86292983709157  62.00221692531343  43.323849421286035  -42.13741553989851  19.061753843976557  120.000000
10.74315  0.000000  0.000000  0.000000  -36.59346667436352  4.314103965701416  -15.70604994624441  42.97457911851697  6.152265236521087  10.092448865930368  63.53474802033486  41.41323905588414  -39.84997888614825  20.048012391588674  120.000000
10.8006  0.000000  0.000000  0.000000  -35.80291222698225  3.5709744002205333  -19.939480287864008  39.49138184783022  8.786217631631814  10.717282519163177  65.29707642733378  38.97161620751162  -38.38707502687062  21.109090567850327  120.000000
10.85805  0.000000  0.000000  0.000000  -35.53577433864662  3.3024464484783014  -23.153020618198113  36.83732796001974  11.005841616192384  11.575248635016319  66.84266220065865  36.050237438749235  -37.419984650166356  22.067316452826056  120.000000
10.9155  0.000000  0.000000  0.000000  -35.829492393471995  3.390929484859296  -25.416039375342237  35.22591629867393  12.884408463152683  12.51241696166148  67.86422359988234  32.698502160887415  -36.60414953871729  22.78937139955983  120.000000
10.97295  0.000000  0.000000  0.000000  -36.636052843903  3.6790958529886697  -26.779115135527356  34.558737851948436  14.515954786972076  13.48044059687893  68.4375528589318  28.958195046666148  -35.807904669915345  23.238319032001407  120.000000
11.0304  0.000000  0.000000  0.000000  -37.862123716107625  4.044246315086958  -27.33489938676234  34.510792833025135  15.96212216188067  14.498867156641012  68.97059028129172  24.907972444645843  -35.19265602937879  23.43099944740696  120.000000
11.08785  0.000000  0.000000  0.000000  -39.38542854156456  4.388339741801959  -27.198245668535222  34.802968284184274  17.298806875783978  15.522766494844728  69.99222643215778  20.70126626496728  -35.16169897972079  23.35733840019402  120.000000
11.1453  0.000000  0.000000  0.000000  -41.151555206004204  4.681170497948147  -26.435202321196257  35.35200575940985  18.591514746975793  16.40127462580439  72.32103922800474  16.556895108167566  -36.50899071747387  22.986579950551157  120.000000
11.20275  0.000000  0.000000  0.000000  -43.14888681979701  4.942266125397388  -25.09953271882111  36.156366712928836  19.859923912150254  16.978897443125557  77.51154708392816  12.723697448670594  -40.77409822025276  22.292114017155637  120.000000
11.260200000000001  0.000000  0.000000  0.000000  -45.375591691891266  5.19377978915841  -23.2793755958915  37.17867434133788  21.066902746641066  17.174196831914504  88.48522373000208  9.53160275264025  -50.85706498281195  21.248012781116657  120.000000
11.31765  0.000000  0.000000  0.000000  -47.7982930532277  5.447754364062405  -21.087949127827297  38.33783060982442  22.13223054719652  17.002467370282886  109.09057846958865  7.510084027341476  -70.56572632643666  19.844123289060583  120.000000
